<?xml version="1.0" encoding="utf-8"?>
<!-- Generator: Adobe Illustrator 19.0.0, SVG Export Plug-In . SVG Version: 6.00 Build 0)  -->
<svg version="1.1" id="Layer_1" xmlns="http://www.w3.org/2000/svg" xmlns:xlink="http://www.w3.org/1999/xlink" x="0px" y="0px"
	 viewBox="-250 169 458 223" style="enable-background:new -250 169 458 223;" xml:space="preserve">
<style type="text/css">
	.st0 {
		fill: #000;
		stroke: #000;
	}
</style>
<path id="body" class="st0" d="M-79.4,336.4l-2.3,5c-18.3,13.5-63.7-9.5-63.7-9.5c-21.8-8.7-30.3-34.9-17.9-54.8l1-1.6v-0.1
	c12.1,22,35.3,29,57.7,29.8C-89.9,315.3-78.6,326.3-79.4,336.4z"/>
<path id="body-contour" class="st0" d="M-19.5,330.3c3.9-9.1,10.8-21,20.2-27.9"/>
<path id="body-contour" class="st0" d="M128.6,275.2c-9.5,18.2-27.6,50.6-39.8,59.7c-18.5,13.8-88.6,20.7-102.2,34.2"/>
<path id="left-ear" class="st0" d="M-147.1,190.6l-2.1,1.8c-10.5,9.3-17.9,21.4-21.6,34.9l-0.8,3l0,0c-0.4-0.3-1.5-1.4-4.2-4
	c-1.8-1.8-4.4-4.4-8.1-8.1c-4.9-5-10.2-12.6-9.9-14.9c0.3-2.3-1.3-1.5,6.3-5.3c10-5,14.9-6.3,18.5-7
	C-150.3,187.6-147.1,190.6-147.1,190.6z"/>
<path id="right-ear" class="st0" d="M-17.1,213.8c0,0,4.1-5.2,10.2-18c0.8-2.1,1.5-4.1,2-6c3.3-11.6,2.3-18.9,1.4-19.5
	c-1.3-1-20.5-2.1-31.5,1c-9.8,2.7-25,8.2-25,8.2s16.2,4.8,28.4,14.8C-19.4,204.2-17.1,213.8-17.1,213.8z"/>
<path id="face" class="st0" d="M-91.9,305c2-0.1,3.9-0.3,5.8-0.4c5.2-0.5,11-1.1,17-2c10.3-1.5,21.3-3.9,31.1-8.1
	c5.8-2.5,11.2-5.6,15.9-9.6c5.3-4.6,9.5-10.2,12.3-17.3c1.3-3.3,2.2-6.9,2.8-10.9c0.8-6-6.9-11-7.7-18.7l-0.5-5.5l-1.9-18.7
	c0,0-2.3-9.6-14.5-19.6S-60,179.4-60,179.4c-2.7-0.9-6.2-1.5-10.5-2s-9.3-0.7-15.1-0.7c-21.3,0-43.9,5.2-61.4,13.9l-2.3,2
	c-10.5,9.3-18,21.4-21.6,34.9l-0.8,3l2.7,22.4c1.3,8.9,3.9,16.4,7.3,22.6v-0.1c12.1,21.9,35.3,29,57.7,29.8c0.1,0.1,4.2,0,4.3,0.1
	C-97,305.2-94.5,305.2-91.9,305"/>
<path id="body" class="st0" d="M-4.9,189.3l11-1.9c42.8-5.7,88.4,6.7,112.8,39c0.8,1.1,1.6,2.4,2.4,3.5c4.6,7.6,4.6,7.8,4.6,7.8
	c4,7.5,7.1,16.4,9,25.4h0.5c4.8,4,7.9,13.9,7.9,19v3.5c0,49.6-51.2,81.7-101.5,89.8c0,0-52.6,10-56.8,0c-1.1-2.5-0.6-4.8,1.5-7
	c-3.5,0.2-5.9,0.3-8.9,0.3c-11.4,0-18.9-1.1-19.7-3.9c-1.9-6.8,17.6-23.4,17.6-23.4s1.2-1,1.9-3s1.7-4.8,3.1-8.1
	c-1,0.6-2.1,1.2-3.1,1.8c-20,11.7-39.6,18.9-49.5,10.2c-13.1-11.4-2.4-32.4,1.3-38.8c0.6-0.7,1-0.8,1-0.8
	c10.3-1.5,22.1-4.6,31.9-8.8c5.8-2.5,11.2-5.6,15.9-9.6c5.3-4.6,9.5-10.2,12.3-17.3c1.3-3.3,2.2-6.9,2.8-10.9c0.8-6-6.9-11-7.7-18.7
	l-0.5-5.5l-2.1-18.9c0,0,4.1-5.2,10.2-18C-6.1,193.2-5.5,191.2-4.9,189.3z"/>
</svg>
